<svg width="155" height="53" viewBox="0 0 155 53" fill="none" xmlns="http://www.w3.org/2000/svg">
<path d="M19.1603 34.701H35.7197V41.2199C35.7197 42.82 34.4303 44.117 32.8398 44.117H22.0402C20.4497 44.117 19.1603 42.82 19.1603 41.2199V34.701Z" fill="#737373"/>
<path fill-rule="evenodd" clip-rule="evenodd" d="M23.4709 9.12457C19.5279 9.93205 16.0535 12.0364 13.507 14.9756C13.5069 14.9755 13.507 14.9756 13.507 14.9756C10.7505 18.157 9.08075 22.3164 9.08075 26.8681V27.4999C9.08092 27.4997 9.08105 27.4994 9.08119 27.4991V28.1631C9.08119 28.3058 9.08119 28.3771 9.08262 28.4374C9.14662 31.143 11.3117 33.3211 14.0011 33.3855C14.061 33.387 14.132 33.387 14.2737 33.387H39.8874C40.0292 33.387 40.1001 33.387 40.1601 33.3855C42.8495 33.3211 45.0145 31.143 45.0785 28.4374C45.0798 28.3771 45.0798 28.3058 45.0798 28.1631V26.8681C45.0798 16.8675 37.0214 8.76031 27.0806 8.76031C25.8444 8.76031 24.637 8.88576 23.4709 9.12457C23.4709 9.12453 23.4709 9.12457 23.4709 9.12457ZM23.3815 10.6261C22.845 13.6821 20.1924 16.0034 17.0008 16.0034C16.2472 16.0034 15.5237 15.874 14.8509 15.636C17.0841 13.1766 20.0405 11.3931 23.3815 10.6261ZM32.3099 11.0567C33.0091 13.8975 35.5601 16.0034 38.6 16.0034C38.9302 16.0034 39.2546 15.9786 39.5715 15.9306C37.6486 13.7099 35.1501 12.0068 32.3099 11.0567ZM43.592 25.5885C42.4513 24.5814 40.9562 23.9708 39.3193 23.9708C35.7407 23.9708 32.8396 26.8894 32.8396 30.4896C32.8396 30.9876 32.8951 31.4724 33.0002 31.9384H39.8874C40.0375 31.9384 40.0873 31.9382 40.1258 31.9373C42.0468 31.8913 43.5933 30.3356 43.639 28.4029C43.6399 28.3642 43.6399 28.3141 43.6399 28.1631V26.8681C43.6399 26.4376 43.6238 26.0109 43.592 25.5885ZM21.1596 31.9384C21.2647 31.4724 21.3202 30.9876 21.3202 30.4896C21.3202 26.8894 18.4191 23.9708 14.8404 23.9708C13.2043 23.9708 11.7097 24.5809 10.5694 25.5872C10.5374 26.01 10.5212 26.4371 10.5212 26.8681V28.1631C10.5212 28.3141 10.5212 28.3642 10.5222 28.4029C10.5679 30.3356 12.1144 31.8913 14.0354 31.9373C14.0739 31.9382 14.1236 31.9384 14.2737 31.9384H21.1596ZM33.56 21.0736C33.56 24.6739 30.659 27.5924 27.0803 27.5924C23.5016 27.5924 20.6005 24.6739 20.6005 21.0736C20.6005 17.4733 23.5016 14.5548 27.0803 14.5548C30.659 14.5548 33.56 17.4733 33.56 21.0736Z" fill="#05C46B"/>
<path d="M55.8409 35.9174V14.5818H59.611V35.9174H55.8409Z" fill="#737373"/>
<path d="M69.0895 36.2729C67.6166 36.2729 66.3108 35.9568 65.1719 35.3247C64.0329 34.6925 63.1394 33.8035 62.4916 32.6577C61.8437 31.5119 61.5193 30.1883 61.5193 28.687C61.5193 27.1658 61.8337 25.8126 62.462 24.6273C63.1103 23.442 63.9937 22.5234 65.1131 21.8714C66.2521 21.1998 67.5874 20.8639 69.1191 20.8639C70.5525 20.8639 71.819 21.18 72.9188 21.8122C74.0182 22.4443 74.8724 23.3135 75.4815 24.4198C76.1098 25.5064 76.4237 26.7213 76.4237 28.0647C76.4237 28.282 76.4141 28.5092 76.3946 28.7462C76.3946 28.9833 76.3845 29.2302 76.3649 29.487H65.2602C65.3391 30.6328 65.7318 31.5317 66.4384 32.1836C67.1651 32.8355 68.0389 33.1615 69.0599 33.1615C69.8258 33.1615 70.4641 32.9936 70.9748 32.6577C71.5047 32.3021 71.8978 31.8478 72.153 31.2946H75.9822C75.7071 32.2231 75.2456 33.0726 74.5977 33.843C73.9694 34.5937 73.184 35.1864 72.2413 35.621C71.3183 36.0556 70.2677 36.2729 69.0895 36.2729ZM69.1191 23.9457C68.1961 23.9457 67.381 24.2124 66.6744 24.7458C65.9673 25.2594 65.5158 26.0496 65.3195 27.1164H72.5949C72.5357 26.1484 72.1821 25.378 71.5343 24.8051C70.8864 24.2321 70.0814 23.9457 69.1191 23.9457Z" fill="#737373"/>
<path d="M81.4939 35.9174L76.1329 21.2195H80.0801L83.7914 32.3318L87.5027 21.2195H91.4496L86.0594 35.9174H81.4939Z" fill="#737373"/>
<path d="M98.7345 36.2729C97.2616 36.2729 95.9559 35.9568 94.8169 35.3247C93.6779 34.6925 92.7845 33.8035 92.1366 32.6577C91.4887 31.5119 91.1644 30.1883 91.1644 28.687C91.1644 27.1658 91.4787 25.8126 92.107 24.6273C92.7553 23.442 93.6387 22.5234 94.7581 21.8714C95.8971 21.1998 97.2324 20.8639 98.7642 20.8639C100.197 20.8639 101.464 21.18 102.564 21.8122C103.663 22.4443 104.517 23.3135 105.127 24.4198C105.755 25.5064 106.069 26.7213 106.069 28.0647C106.069 28.282 106.059 28.5092 106.04 28.7462C106.04 28.9833 106.03 29.2302 106.01 29.487H94.9053C94.9841 30.6328 95.3768 31.5317 96.0834 32.1836C96.8101 32.8355 97.6839 33.1615 98.7049 33.1615C99.4708 33.1615 100.109 32.9936 100.62 32.6577C101.15 32.3021 101.543 31.8478 101.798 31.2946H105.627C105.352 32.2231 104.891 33.0726 104.243 33.843C103.614 34.5937 102.829 35.1864 101.886 35.621C100.963 36.0556 99.9127 36.2729 98.7345 36.2729ZM98.7642 23.9457C97.8411 23.9457 97.0261 24.2124 96.3194 24.7458C95.6123 25.2594 95.1608 26.0496 94.9645 27.1164H102.24C102.181 26.1484 101.828 25.378 101.179 24.8051C100.531 24.2321 99.7264 23.9457 98.7642 23.9457Z" fill="#737373"/>
<path d="M107.767 35.9174V14.5818H111.537V35.9174H107.767Z" fill="#737373"/>
<path d="M119.396 36.2729C117.57 36.2729 116.156 35.7 115.154 34.5543C114.172 33.4084 113.682 31.7293 113.682 29.5167V21.2195H117.423V29.1611C117.423 30.4254 117.678 31.3934 118.188 32.0651C118.699 32.7367 119.504 33.0726 120.604 33.0726C121.644 33.0726 122.498 32.6972 123.166 31.9466C123.853 31.1959 124.197 30.1489 124.197 28.8055V21.2195H127.967V35.9174H124.639L124.344 33.4282C123.892 34.2974 123.235 34.9889 122.371 35.5025C121.527 36.0161 120.535 36.2729 119.396 36.2729Z" fill="#737373"/>
<path d="M130.365 42.4365V21.2195H133.723L134.135 23.3234C134.607 22.6715 135.225 22.0986 135.991 21.6047C136.776 21.1108 137.788 20.8639 139.025 20.8639C140.399 20.8639 141.626 21.1998 142.707 21.8714C143.786 22.5431 144.641 23.4617 145.269 24.6273C145.898 25.7928 146.212 27.1164 146.212 28.598C146.212 30.0797 145.898 31.4033 145.269 32.5688C144.641 33.7146 143.786 34.6233 142.707 35.295C141.626 35.9469 140.399 36.2729 139.025 36.2729C137.925 36.2729 136.963 36.0655 136.138 35.6506C135.313 35.2358 134.646 34.653 134.135 33.9023V42.4365H130.365ZM138.229 32.9541C139.427 32.9541 140.419 32.5491 141.205 31.7391C141.99 30.9292 142.383 29.8821 142.383 28.598C142.383 27.3139 141.99 26.2571 141.205 25.4274C140.419 24.5976 139.427 24.1828 138.229 24.1828C137.012 24.1828 136.01 24.5976 135.225 25.4274C134.459 26.2373 134.076 27.2843 134.076 28.5684C134.076 29.8525 134.459 30.9094 135.225 31.7391C136.01 32.5491 137.012 32.9541 138.229 32.9541Z" fill="#737373"/>
</svg>
